<svg xmlns="http://www.w3.org/2000/svg" width="34" height="34" viewBox="0 0 34 34" fill="none">
  <g clip-path="url(#clip0_573_1668)">
    <path d="M10.7943 8.46242L9.90871 9.19576C9.47185 9.56512 9.13528 10.0388 8.93019 10.5728C8.72509 11.1069 8.65811 11.684 8.73544 12.2509C9.09709 15.0215 10.955 17.8082 14.3084 20.6142C17.656 23.4154 20.6532 24.6928 23.2988 24.4475C24.4194 24.3441 25.4027 23.6203 25.8797 22.5501L26.3585 21.4754C26.8052 20.4717 26.4757 19.2729 25.5875 18.6745L23.8076 17.4727C23.4394 17.2208 22.9982 17.0975 22.5528 17.122C22.1073 17.1466 21.6823 17.3176 21.344 17.6084L19.4826 19.1873C18.381 18.8938 17.3523 18.3747 16.4618 17.6629C15.5343 16.9317 14.8283 16.0906 14.3458 15.1394L15.4905 12.7437C15.6919 12.3231 15.7604 11.8511 15.6868 11.3906C15.6132 10.93 15.4011 10.5028 15.0787 10.1659L13.572 8.61973C13.2159 8.24539 12.7305 8.02084 12.2147 7.99179C11.6988 7.96274 11.1913 8.13139 10.7954 8.46339L10.7943 8.46242Z" fill="white"/>
  </g>
  <defs>
    <clipPath id="clip0_573_1668">
      <rect width="24" height="24" fill="white" transform="translate(18.479 33.9043) rotate(-140)"/>
    </clipPath>
  </defs>
</svg>