<svg xmlns="http://www.w3.org/2000/svg" width="25" height="26" viewBox="0 0 25 26" fill="none">
  <path d="M21.7023 20.3839V18.6569C21.7023 17.7988 21.1894 17.0271 20.4072 16.7084L18.3117 15.8547C17.3167 15.4494 16.1828 15.8884 15.7036 16.8646L15.5213 17.2361C15.5213 17.2361 12.9458 16.7115 10.8855 14.6129C8.82514 12.5144 8.31006 9.89127 8.31006 9.89127L8.67475 9.70554C9.63319 9.21744 10.0643 8.06255 9.66632 7.0492L8.82812 4.91485C8.51523 4.11813 7.75762 3.5957 6.91513 3.5957H5.21953C4.08163 3.5957 3.15918 4.53524 3.15918 5.69423C3.15918 14.9661 10.5388 22.4824 19.642 22.4824C20.7799 22.4824 21.7023 21.5429 21.7023 20.3839Z" stroke="#000E08" stroke-width="1.5" stroke-linejoin="round"/>
</svg>