<svg xmlns="http://www.w3.org/2000/svg" width="27" height="26" viewBox="0 0 27 26" fill="none">
  <path d="M7.6883 6.30208V7.05208C7.93342 7.05208 8.16307 6.9323 8.30335 6.73128L7.6883 6.30208ZM9.23281 4.08877L8.61776 3.65957V3.65957L9.23281 4.08877ZM17.1268 4.08877L17.7419 3.65957L17.1268 4.08877ZM18.6713 6.30208L18.0563 6.73128C18.1966 6.9323 18.4262 7.05208 18.6713 7.05208V6.30208ZM15.7247 14.1715C15.7247 15.4639 14.618 16.5693 13.1798 16.5693V18.0693C15.3811 18.0693 17.2247 16.3561 17.2247 14.1715H15.7247ZM13.1798 16.5693C11.7416 16.5693 10.6349 15.4639 10.6349 14.1715H9.13491C9.13491 16.3561 10.9785 18.0693 13.1798 18.0693V16.5693ZM10.6349 14.1715C10.6349 12.8792 11.7416 11.7738 13.1798 11.7738V10.2738C10.9785 10.2738 9.13491 11.9869 9.13491 14.1715H10.6349ZM13.1798 11.7738C14.618 11.7738 15.7247 12.8792 15.7247 14.1715H17.2247C17.2247 11.9869 15.3811 10.2738 13.1798 10.2738V11.7738ZM8.30335 6.73128L9.84786 4.51797L8.61776 3.65957L7.07325 5.87288L8.30335 6.73128ZM11.0605 3.9043H15.2991V2.4043H11.0605V3.9043ZM16.5118 4.51797L18.0563 6.73128L19.2864 5.87288L17.7419 3.65957L16.5118 4.51797ZM15.2991 3.9043C15.7977 3.9043 16.2499 4.14264 16.5118 4.51797L17.7419 3.65957C17.189 2.86729 16.2695 2.4043 15.2991 2.4043V3.9043ZM9.84786 4.51797C10.1098 4.14264 10.5619 3.9043 11.0605 3.9043V2.4043C10.0902 2.4043 9.17063 2.86728 8.61776 3.65957L9.84786 4.51797ZM23.4129 10.4991V17.8439H24.9129V10.4991H23.4129ZM19.7696 21.291H6.58999V22.791H19.7696V21.291ZM2.94678 17.8439V10.4991H1.44678V17.8439H2.94678ZM6.58999 21.291C4.54524 21.291 2.94678 19.7158 2.94678 17.8439H1.44678C1.44678 20.608 3.78213 22.791 6.58999 22.791V21.291ZM23.4129 17.8439C23.4129 19.7158 21.8144 21.291 19.7696 21.291V22.791C22.5775 22.791 24.9129 20.608 24.9129 17.8439H23.4129ZM19.7696 7.05208C21.8144 7.05208 23.4129 8.62729 23.4129 10.4991H24.9129C24.9129 7.73503 22.5775 5.55208 19.7696 5.55208V7.05208ZM6.58999 5.55208C3.78213 5.55208 1.44678 7.73503 1.44678 10.4991H2.94678C2.94678 8.62729 4.54524 7.05208 6.58999 7.05208V5.55208ZM6.58999 7.05208H7.6883V5.55208H6.58999V7.05208ZM19.7696 5.55208H18.6713V7.05208H19.7696V5.55208Z" fill="#000E08"/>
  <ellipse cx="13.1798" cy="6.30219" rx="1.0983" ry="1.04926" fill="#000E08"/>
</svg>