<svg xmlns="http://www.w3.org/2000/svg" width="24" height="24" viewBox="0 0 24 24" fill="none">
  <g clip-path="url(#clip0_344_2923)">
    <path fill-rule="evenodd" clip-rule="evenodd" d="M16.4415 18.5479C16.8693 18.092 17.1432 17.5133 17.2245 16.8934L21.8895 18.9664C22.1178 19.0682 22.368 19.1112 22.6172 19.0917C22.8664 19.0722 23.1068 18.9907 23.3165 18.8546C23.5262 18.7185 23.6986 18.5322 23.8179 18.3125C23.9373 18.0929 23.9999 17.8469 24 17.5969V6.40393C23.9998 6.15414 23.9372 5.90837 23.8179 5.6889C23.6986 5.46944 23.5264 5.28324 23.3169 5.14721C23.1074 5.01117 22.8673 4.9296 22.6183 4.90991C22.3693 4.89021 22.1193 4.93302 21.891 5.03443L17.2245 7.10743C17.1292 6.38606 16.7749 5.72392 16.2277 5.24432C15.6805 4.76472 14.9776 4.50034 14.25 4.50043H6.408L16.443 18.5479H16.4415ZM1.2705 5.04793C0.877833 5.32513 0.557479 5.69257 0.336387 6.11936C0.115295 6.54614 -6.90215e-05 7.01978 3.09809e-08 7.50043V16.5004C3.09809e-08 17.2961 0.316071 18.0591 0.87868 18.6217C1.44129 19.1844 2.20435 19.5004 3 19.5004H11.592L1.2705 5.04943V5.04793ZM15.8895 22.9354L0.8895 1.93543L2.1105 1.06543L17.1105 22.0654L15.8895 22.9354Z" fill="white"/>
  </g>
  <defs>
    <clipPath id="clip0_344_2923">
      <rect width="24" height="24" fill="white"/>
    </clipPath>
  </defs>
</svg>