<svg width="283" height="286" viewBox="0 0 283 286" fill="none" xmlns="http://www.w3.org/2000/svg">
<ellipse cx="145.822" cy="142.981" rx="93.1885" ry="94.3741" stroke="url(#paint0_linear_0_1)" stroke-width="1.07917"/>
<ellipse cx="141.353" cy="140.878" rx="141.353" ry="140.878" transform="matrix(-0.600709 0.799468 -0.79209 -0.610405 338 115.984)" stroke="url(#paint1_linear_0_1)" stroke-width="1.07917"/>
<g filter="url(#filter0_dd_0_1)">
<ellipse cx="42.4691" cy="42.7096" rx="7.01105" ry="7.10025" fill="black"/>
<path d="M49.2962 42.7096C49.2962 46.5316 46.2374 49.6259 42.4691 49.6259C38.7007 49.6259 35.642 46.5316 35.642 42.7096C35.642 38.8877 38.7007 35.7933 42.4691 35.7933C46.2374 35.7933 49.2962 38.8877 49.2962 42.7096Z" stroke="white" stroke-width="0.367898"/>
</g>
<g filter="url(#filter1_dd_0_1)">
<ellipse cx="249.984" cy="243.29" rx="19.2804" ry="19.5257" fill="black"/>
<path d="M269.081 243.29C269.081 253.975 260.529 262.632 249.984 262.632C239.44 262.632 230.888 253.975 230.888 243.29C230.888 232.606 239.44 223.949 249.984 223.949C260.529 223.949 269.081 232.606 269.081 243.29Z" stroke="white" stroke-width="0.367898"/>
</g>
<g filter="url(#filter2_dd_0_1)">
<circle cx="4.54424" cy="4.54424" r="4.04424" transform="matrix(-0.702623 -0.711562 0.702623 -0.711562 56.3896 259.56)" stroke="black" shape-rendering="crispEdges"/>
</g>
<g clip-path="url(#clip0_0_1)">
<path fill-rule="evenodd" clip-rule="evenodd" d="M141.931 128.405C131.341 128.405 122.757 137.099 122.757 147.824C122.757 158.548 131.341 167.242 141.931 167.242C146.413 167.242 150.536 165.685 153.801 163.075L162.04 171.419C162.921 172.311 164.349 172.311 165.23 171.419C166.111 170.527 166.111 169.08 165.23 168.188L156.991 159.844C159.568 156.538 161.105 152.362 161.105 147.824C161.105 137.099 152.521 128.405 141.931 128.405ZM127.268 147.824C127.268 139.623 133.833 132.974 141.931 132.974C150.029 132.974 156.594 139.623 156.594 147.824C156.594 156.025 150.029 162.673 141.931 162.673C133.833 162.673 127.268 156.025 127.268 147.824Z" fill="black"/>
</g>
<defs>
<filter id="filter0_dd_0_1" x="22.9495" y="23.1009" width="39.0393" height="39.2172" filterUnits="userSpaceOnUse" color-interpolation-filters="sRGB">
<feFlood flood-opacity="0" result="BackgroundImageFix"/>
<feColorMatrix in="SourceAlpha" type="matrix" values="0 0 0 0 0 0 0 0 0 0 0 0 0 0 0 0 0 0 127 0" result="hardAlpha"/>
<feOffset/>
<feGaussianBlur stdDeviation="3.54102"/>
<feComposite in2="hardAlpha" operator="out"/>
<feColorMatrix type="matrix" values="0 0 0 0 1 0 0 0 0 1 0 0 0 0 1 0 0 0 1 0"/>
<feBlend mode="normal" in2="BackgroundImageFix" result="effect1_dropShadow_0_1"/>
<feColorMatrix in="SourceAlpha" type="matrix" values="0 0 0 0 0 0 0 0 0 0 0 0 0 0 0 0 0 0 127 0" result="hardAlpha"/>
<feOffset/>
<feGaussianBlur stdDeviation="6.25426"/>
<feComposite in2="hardAlpha" operator="out"/>
<feColorMatrix type="matrix" values="0 0 0 0 1 0 0 0 0 1 0 0 0 0 1 0 0 0 1 0"/>
<feBlend mode="normal" in2="effect1_dropShadow_0_1" result="effect2_dropShadow_0_1"/>
<feBlend mode="normal" in="SourceGraphic" in2="effect2_dropShadow_0_1" result="shape"/>
</filter>
<filter id="filter1_dd_0_1" x="218.196" y="211.256" width="63.5778" height="64.0688" filterUnits="userSpaceOnUse" color-interpolation-filters="sRGB">
<feFlood flood-opacity="0" result="BackgroundImageFix"/>
<feColorMatrix in="SourceAlpha" type="matrix" values="0 0 0 0 0 0 0 0 0 0 0 0 0 0 0 0 0 0 127 0" result="hardAlpha"/>
<feOffset/>
<feGaussianBlur stdDeviation="3.54102"/>
<feComposite in2="hardAlpha" operator="out"/>
<feColorMatrix type="matrix" values="0 0 0 0 1 0 0 0 0 1 0 0 0 0 1 0 0 0 1 0"/>
<feBlend mode="normal" in2="BackgroundImageFix" result="effect1_dropShadow_0_1"/>
<feColorMatrix in="SourceAlpha" type="matrix" values="0 0 0 0 0 0 0 0 0 0 0 0 0 0 0 0 0 0 127 0" result="hardAlpha"/>
<feOffset/>
<feGaussianBlur stdDeviation="6.25426"/>
<feComposite in2="hardAlpha" operator="out"/>
<feColorMatrix type="matrix" values="0 0 0 0 1 0 0 0 0 1 0 0 0 0 1 0 0 0 1 0"/>
<feBlend mode="normal" in2="effect1_dropShadow_0_1" result="effect2_dropShadow_0_1"/>
<feBlend mode="normal" in="SourceGraphic" in2="effect2_dropShadow_0_1" result="shape"/>
</filter>
<filter id="filter2_dd_0_1" x="40.2158" y="236.861" width="32.3476" height="32.4624" filterUnits="userSpaceOnUse" color-interpolation-filters="sRGB">
<feFlood flood-opacity="0" result="BackgroundImageFix"/>
<feColorMatrix in="SourceAlpha" type="matrix" values="0 0 0 0 0 0 0 0 0 0 0 0 0 0 0 0 0 0 127 0" result="hardAlpha"/>
<feOffset/>
<feGaussianBlur stdDeviation="3.30036"/>
<feComposite in2="hardAlpha" operator="out"/>
<feColorMatrix type="matrix" values="0 0 0 0 1 0 0 0 0 1 0 0 0 0 1 0 0 0 1 0"/>
<feBlend mode="normal" in2="BackgroundImageFix" result="effect1_dropShadow_0_1"/>
<feColorMatrix in="SourceAlpha" type="matrix" values="0 0 0 0 0 0 0 0 0 0 0 0 0 0 0 0 0 0 127 0" result="hardAlpha"/>
<feOffset/>
<feGaussianBlur stdDeviation="5.82921"/>
<feComposite in2="hardAlpha" operator="out"/>
<feColorMatrix type="matrix" values="0 0 0 0 1 0 0 0 0 1 0 0 0 0 1 0 0 0 1 0"/>
<feBlend mode="normal" in2="effect1_dropShadow_0_1" result="effect2_dropShadow_0_1"/>
<feBlend mode="normal" in="SourceGraphic" in2="effect2_dropShadow_0_1" result="shape"/>
</filter>
<linearGradient id="paint0_linear_0_1" x1="145.822" y1="48.6064" x2="145.822" y2="237.355" gradientUnits="userSpaceOnUse">
<stop stop-color="#A3A3A3"/>
<stop offset="1" stop-color="#A3A3A3" stop-opacity="0"/>
</linearGradient>
<linearGradient id="paint1_linear_0_1" x1="141.353" y1="-6.59477e-08" x2="143.559" y2="364.749" gradientUnits="userSpaceOnUse">
<stop stop-color="#A8A8A8" stop-opacity="0.56"/>
<stop offset="1" stop-color="#939393" stop-opacity="0"/>
</linearGradient>
<clipPath id="clip0_0_1">
<rect width="54.1394" height="54.8282" fill="white" transform="translate(118.245 123.836)"/>
</clipPath>
</defs>
</svg>
