<svg xmlns="http://www.w3.org/2000/svg" width="24" height="24" viewBox="0 0 24 24" fill="none">
  <path d="M22.2403 14.55L22.4473 13.419C22.5446 12.8553 22.4979 12.2761 22.3118 11.7352C22.1256 11.1942 21.8059 10.709 21.3823 10.3245C19.3243 8.43453 16.1098 7.49403 11.7373 7.50003C7.37233 7.50603 4.25533 8.45403 2.38633 10.3425C1.59433 11.142 1.30633 12.3285 1.62883 13.455L1.95283 14.586C2.25583 15.642 3.27883 16.3485 4.34383 16.236L6.47983 16.0125C6.92385 15.9688 7.34102 15.7797 7.66651 15.4746C7.99201 15.1694 8.20761 14.7653 8.27983 14.325L8.69083 11.919C9.72341 11.4358 10.8451 11.1722 11.9848 11.145C13.1653 11.109 14.2468 11.2995 15.2278 11.718L15.8908 14.289C16.0069 14.7407 16.2579 15.1463 16.6103 15.4518C16.9626 15.7573 17.3997 15.9482 17.8633 15.999L20.0113 16.215C20.5247 16.2729 21.0409 16.1329 21.4548 15.8236C21.8686 15.5142 22.149 15.0588 22.2388 14.55H22.2403Z" fill="white"/>
</svg>