<svg xmlns="http://www.w3.org/2000/svg" width="26" height="21" viewBox="0 0 26 21" fill="none">
  <path d="M7.33333 16.0068L7.33333 9.00684C7.33333 7.07384 9.27343 5.50684 11.6667 5.50684L18.1667 5.50684M7.33333 16.0068C7.33333 17.9398 9.27343 19.5068 11.6667 19.5068H14.2051C15.3543 19.5068 16.4565 19.1381 17.2692 18.4817L21.2308 15.282C22.0435 14.6256 22.5 13.7353 22.5 12.8071V9.00684C22.5 7.07384 20.5599 5.50684 18.1667 5.50684M7.33333 16.0068C4.9401 16.0068 3 14.4398 3 12.5068L3 5.50684C3 3.57384 4.9401 2.00684 7.33333 2.00684L13.8333 2.00684C16.2266 2.00684 18.1667 3.57384 18.1667 5.50684M16 19.5068V17.7568C16 15.8238 17.9401 14.2568 20.3333 14.2568H22.5" stroke="#797C7B" stroke-width="1.5" stroke-linejoin="round"/>
</svg>